<svg width="247" height="44" viewBox="0 0 247 44" fill="none" xmlns="http://www.w3.org/2000/svg">
<path d="M62.9446 35H57.8821L67.0994 8.81818H72.9545L82.1847 35H77.1222L70.1293 14.1875H69.9247L62.9446 35ZM63.1108 24.7344H76.9176V28.544H63.1108V24.7344ZM83.9886 35V15.3636H88.4758V18.6364H88.6804C89.0383 17.5028 89.652 16.6293 90.5213 16.0156C91.3991 15.3935 92.4006 15.0824 93.5256 15.0824C93.7812 15.0824 94.0667 15.0952 94.3821 15.1207C94.706 15.1378 94.9744 15.1676 95.1875 15.2102V19.4673C94.9915 19.3991 94.6804 19.3395 94.2542 19.2884C93.8366 19.2287 93.4318 19.1989 93.0398 19.1989C92.196 19.1989 91.4375 19.3821 90.7642 19.7486C90.0994 20.1065 89.5753 20.6051 89.1917 21.2443C88.8082 21.8835 88.6165 22.6207 88.6165 23.456V35H83.9886ZM107.682 15.3636V18.9432H96.3938V15.3636H107.682ZM99.1807 10.6591H103.809V29.0938C103.809 29.7159 103.902 30.1932 104.09 30.5256C104.286 30.8494 104.542 31.071 104.857 31.1903C105.172 31.3097 105.522 31.3693 105.905 31.3693C106.195 31.3693 106.459 31.348 106.698 31.3054C106.945 31.2628 107.132 31.2244 107.26 31.1903L108.04 34.8082C107.793 34.8935 107.439 34.9872 106.979 35.0895C106.527 35.1918 105.973 35.2514 105.317 35.2685C104.158 35.3026 103.114 35.1278 102.185 34.7443C101.256 34.3523 100.519 33.7472 99.9733 32.929C99.4364 32.1108 99.1722 31.0881 99.1807 29.8608V10.6591ZM122.628 26.7415V15.3636H127.256V35H122.769V31.5099H122.564C122.121 32.6094 121.392 33.5085 120.378 34.2074C119.372 34.9062 118.132 35.2557 116.658 35.2557C115.371 35.2557 114.233 34.9702 113.245 34.3991C112.265 33.8196 111.497 32.9801 110.943 31.8807C110.39 30.7727 110.113 29.4347 110.113 27.8665V15.3636H114.74V27.1506C114.74 28.3949 115.081 29.3835 115.763 30.1165C116.445 30.8494 117.34 31.2159 118.448 31.2159C119.13 31.2159 119.79 31.0497 120.429 30.7173C121.068 30.3849 121.593 29.8906 122.002 29.2344C122.419 28.5696 122.628 27.7386 122.628 26.7415ZM130.575 35V15.3636H135.062V18.6364H135.267C135.625 17.5028 136.238 16.6293 137.108 16.0156C137.985 15.3935 138.987 15.0824 140.112 15.0824C140.367 15.0824 140.653 15.0952 140.968 15.1207C141.292 15.1378 141.561 15.1676 141.774 15.2102V19.4673C141.578 19.3991 141.267 19.3395 140.84 19.2884C140.423 19.2287 140.018 19.1989 139.626 19.1989C138.782 19.1989 138.024 19.3821 137.35 19.7486C136.686 20.1065 136.162 20.6051 135.778 21.2443C135.394 21.8835 135.203 22.6207 135.203 23.456V35H130.575ZM151.165 35.3835C149.247 35.3835 147.586 34.9616 146.179 34.1179C144.773 33.2741 143.682 32.0937 142.907 30.5767C142.139 29.0597 141.756 27.2869 141.756 25.2585C141.756 23.2301 142.139 21.4531 142.907 19.9276C143.682 18.402 144.773 17.2173 146.179 16.3736C147.586 15.5298 149.247 15.108 151.165 15.108C153.083 15.108 154.745 15.5298 156.151 16.3736C157.557 17.2173 158.644 18.402 159.411 19.9276C160.186 21.4531 160.574 23.2301 160.574 25.2585C160.574 27.2869 160.186 29.0597 159.411 30.5767C158.644 32.0937 157.557 33.2741 156.151 34.1179C154.745 34.9616 153.083 35.3835 151.165 35.3835ZM151.191 31.6761C152.23 31.6761 153.1 31.3906 153.799 30.8196C154.497 30.2401 155.017 29.4645 155.358 28.4929C155.708 27.5213 155.882 26.4389 155.882 25.2457C155.882 24.044 155.708 22.9574 155.358 21.9858C155.017 21.0057 154.497 20.2259 153.799 19.6463C153.1 19.0668 152.23 18.777 151.191 18.777C150.125 18.777 149.239 19.0668 148.532 19.6463C147.833 20.2259 147.309 21.0057 146.959 21.9858C146.618 22.9574 146.448 24.044 146.448 25.2457C146.448 26.4389 146.618 27.5213 146.959 28.4929C147.309 29.4645 147.833 30.2401 148.532 30.8196C149.239 31.3906 150.125 31.6761 151.191 31.6761ZM174.119 35H169.056L178.273 8.81818H184.128L193.359 35H188.296L181.303 14.1875H181.099L174.119 35ZM174.285 24.7344H188.092V28.544H174.285V24.7344ZM210.241 15.3636L203.248 35H198.135L191.142 15.3636H196.077L200.589 29.9503H200.794L205.319 15.3636H210.241ZM212.004 35V15.3636H216.632V35H212.004ZM214.33 12.5767C213.598 12.5767 212.967 12.3338 212.438 11.848C211.91 11.3537 211.646 10.7614 211.646 10.071C211.646 9.37216 211.91 8.77983 212.438 8.29403C212.967 7.79971 213.598 7.55256 214.33 7.55256C215.072 7.55256 215.703 7.79971 216.223 8.29403C216.751 8.77983 217.015 9.37216 217.015 10.071C217.015 10.7614 216.751 11.3537 216.223 11.848C215.703 12.3338 215.072 12.5767 214.33 12.5767ZM224.578 8.81818V35H219.951V8.81818H224.578ZM233.548 35.3963C232.303 35.3963 231.183 35.1747 230.186 34.7315C229.197 34.2798 228.413 33.6151 227.833 32.7372C227.262 31.8594 226.977 30.777 226.977 29.4901C226.977 28.3821 227.181 27.4659 227.59 26.7415C227.999 26.017 228.558 25.4375 229.265 25.0028C229.973 24.5682 230.769 24.2401 231.656 24.0185C232.551 23.7884 233.475 23.6222 234.43 23.5199C235.58 23.4006 236.514 23.294 237.23 23.2003C237.946 23.098 238.465 22.9446 238.789 22.7401C239.122 22.527 239.288 22.1989 239.288 21.7557V21.679C239.288 20.7159 239.002 19.9702 238.431 19.4418C237.86 18.9134 237.038 18.6491 235.964 18.6491C234.83 18.6491 233.931 18.8963 233.267 19.3906C232.61 19.8849 232.167 20.4687 231.937 21.142L227.616 20.5284C227.957 19.3352 228.519 18.3381 229.303 17.5369C230.088 16.7273 231.046 16.1222 232.18 15.7216C233.313 15.3125 234.566 15.108 235.938 15.108C236.884 15.108 237.826 15.2188 238.764 15.4403C239.701 15.6619 240.558 16.0284 241.333 16.5398C242.109 17.0426 242.731 17.7287 243.2 18.598C243.677 19.4673 243.916 20.554 243.916 21.858V35H239.467V32.3026H239.313C239.032 32.848 238.636 33.3594 238.124 33.8366C237.622 34.3054 236.987 34.6847 236.22 34.9744C235.461 35.2557 234.571 35.3963 233.548 35.3963ZM234.749 31.9957C235.678 31.9957 236.484 31.8125 237.166 31.446C237.848 31.071 238.372 30.5767 238.738 29.9631C239.113 29.3494 239.301 28.6804 239.301 27.956V25.642C239.156 25.7614 238.909 25.8722 238.559 25.9744C238.218 26.0767 237.835 26.1662 237.409 26.2429C236.982 26.3196 236.561 26.3878 236.143 26.4474C235.725 26.5071 235.363 26.5582 235.056 26.6009C234.366 26.6946 233.748 26.848 233.203 27.0611C232.657 27.2741 232.227 27.5724 231.911 27.956C231.596 28.331 231.438 28.8168 231.438 29.4134C231.438 30.2656 231.749 30.9091 232.372 31.3438C232.994 31.7784 233.786 31.9957 234.749 31.9957Z" fill="#3AB6B6"/>
<circle cx="14.4026" cy="23" r="2" fill="#3AB6B6"/>
<circle cx="14.4026" cy="11" r="2" fill="#3AB6B6"/>
<circle cx="31.4026" cy="35" r="2" fill="#3AB6B6"/>
<circle cx="31.4026" cy="23" r="2" fill="#3AB6B6"/>
<circle cx="23.4026" cy="23" r="2" fill="#3AB6B6"/>
<rect y="22.9038" width="15.7762" height="4.10978" rx="2.05489" transform="rotate(-45 0 22.9038)" fill="#3AB6B6"/>
<rect width="15.7762" height="4.10978" rx="2.05489" transform="matrix(-0.707107 -0.707107 -0.707107 0.707107 17.5983 35.2123)" fill="#3AB6B6"/>
<rect width="15.7762" height="4.10978" rx="2.05489" transform="matrix(-0.707107 -0.707107 -0.707107 0.707107 42.4748 19.1555)" fill="#3AB6B6"/>
<rect x="32.3411" y="31.9391" width="15.7762" height="4.10978" rx="2.05489" transform="rotate(-45 32.3411 31.9391)" fill="#3AB6B6"/>
</svg>
